M48
;GenerationSoftware,Autodesk,EAGLE,9.4.2*%
;CreationDate,2020-03-02T16:16:19Z*%
FMAT,2
ICI,OFF
METRIC,TZ,000.000
T3C1.016
T2C3.175
%
G90
M71
T2
X93980Y53340
X5080Y91440
X5080Y53340
X93980Y43180
X93980Y5080
X5080Y43180
X5080Y5080
X93980Y91440
T3
X22860Y30480
X43180Y30480
X25400Y30480
X27940Y30480
X30480Y30480
X33020Y30480
X35560Y30480
X38100Y30480
X40640Y30480
X93980Y33020
X20320Y30480
X17780Y30480
X15240Y30480
X12700Y30480
X10160Y30480
X7620Y30480
X5080Y30480
X2540Y30480
X96520Y33020
X91440Y30480
X68580Y30480
X81280Y45720
X88900Y30480
X86360Y30480
X83820Y30480
X81280Y30480
X78740Y30480
X76200Y30480
X73660Y30480
X71120Y30480
X45720Y30480
X66040Y30480
X63500Y30480
X60960Y30480
X58420Y30480
X55880Y30480
X53340Y30480
X50800Y30480
X48260Y30480
X17780Y33020
X40640Y33020
X38100Y33020
X35560Y33020
X33020Y33020
X30480Y33020
X27940Y33020
X25400Y33020
X22860Y33020
X20320Y33020
X43180Y33020
X15240Y33020
X12700Y33020
X10160Y33020
X7620Y33020
X5080Y33020
X2540Y33020
X86360Y45720
X83820Y45720
X93980Y25400
X66040Y33020
X88900Y33020
X86360Y33020
X83820Y33020
X81280Y33020
X78740Y33020
X76200Y33020
X73660Y33020
X71120Y33020
X68580Y33020
X91440Y33020
X63500Y33020
X60960Y33020
X58420Y33020
X55880Y33020
X53340Y33020
X50800Y33020
X48260Y33020
X45720Y33020
X22860Y25400
X45720Y25400
X43180Y25400
X40640Y25400
X38100Y25400
X35560Y25400
X33020Y25400
X30480Y25400
X27940Y25400
X25400Y25400
X48260Y25400
X20320Y25400
X17780Y25400
X15240Y25400
X12700Y25400
X10160Y25400
X7620Y25400
X5080Y25400
X2540Y25400
X96520Y27940
X71120Y25400
X2540Y35560
X91440Y25400
X88900Y25400
X86360Y25400
X83820Y25400
X81280Y25400
X78740Y25400
X76200Y25400
X73660Y25400
X93980Y27940
X68580Y25400
X66040Y25400
X63500Y25400
X60960Y25400
X58420Y25400
X55880Y25400
X53340Y25400
X50800Y25400
X20320Y27940
X43180Y27940
X40640Y27940
X38100Y27940
X35560Y27940
X33020Y27940
X30480Y27940
X27940Y27940
X25400Y27940
X22860Y27940
X45720Y27940
X17780Y27940
X15240Y27940
X12700Y27940
X10160Y27940
X7620Y27940
X5080Y27940
X2540Y27940
X96520Y30480
X68580Y27940
X91440Y27940
X88900Y27940
X86360Y27940
X83820Y27940
X81280Y27940
X78740Y27940
X76200Y27940
X73660Y27940
X71120Y27940
X93980Y30480
X66040Y27940
X63500Y27940
X60960Y27940
X58420Y27940
X55880Y27940
X53340Y27940
X50800Y27940
X48260Y27940
X38100Y38100
X60960Y38100
X58420Y38100
X55880Y38100
X53340Y38100
X50800Y38100
X48260Y38100
X45720Y38100
X43180Y38100
X40640Y38100
X63500Y38100
X35560Y38100
X33020Y38100
X30480Y38100
X27940Y38100
X25400Y38100
X22860Y38100
X20320Y38100
X17780Y38100
X15240Y38100
X86360Y38100
X33020Y40640
X30480Y40640
X27940Y40640
X25400Y40640
X22860Y40640
X20320Y40640
X17780Y40640
X15240Y40640
X12700Y40640
X12700Y38100
X83820Y38100
X81280Y38100
X78740Y38100
X76200Y38100
X73660Y38100
X71120Y38100
X68580Y38100
X66040Y38100
X25400Y35560
X48260Y35560
X45720Y35560
X43180Y35560
X40640Y35560
X38100Y35560
X35560Y35560
X33020Y35560
X30480Y35560
X27940Y35560
X50800Y35560
X22860Y35560
X20320Y35560
X17780Y35560
X15240Y35560
X12700Y35560
X10160Y35560
X7620Y35560
X5080Y35560
X86360Y10160
X73660Y35560
X96520Y35560
X93980Y35560
X91440Y35560
X88900Y35560
X86360Y35560
X83820Y35560
X81280Y35560
X78740Y35560
X76200Y35560
X35560Y40640
X71120Y35560
X68580Y35560
X66040Y35560
X63500Y35560
X60960Y35560
X58420Y35560
X55880Y35560
X53340Y35560
X81280Y43180
X27940Y45720
X25400Y45720
X22860Y45720
X20320Y45720
X17780Y45720
X15240Y45720
X12700Y45720
X86360Y43180
X83820Y43180
X30480Y45720
X78740Y43180
X76200Y43180
X73660Y43180
X71120Y43180
X68580Y43180
X66040Y43180
X63500Y43180
X60960Y43180
X58420Y43180
X53340Y45720
X76200Y45720
X73660Y45720
X71120Y45720
X68580Y45720
X66040Y45720
X63500Y45720
X60960Y45720
X58420Y45720
X55880Y45720
X55880Y43180
X50800Y45720
X48260Y45720
X45720Y45720
X43180Y45720
X40640Y45720
X38100Y45720
X35560Y45720
X33020Y45720
X58420Y40640
X81280Y40640
X78740Y40640
X76200Y40640
X73660Y40640
X71120Y40640
X68580Y40640
X66040Y40640
X63500Y40640
X60960Y40640
X83820Y40640
X55880Y40640
X53340Y40640
X50800Y40640
X48260Y40640
X45720Y40640
X43180Y40640
X40640Y40640
X38100Y40640
X30480Y43180
X53340Y43180
X50800Y43180
X48260Y43180
X45720Y43180
X43180Y43180
X40640Y43180
X38100Y43180
X35560Y43180
X33020Y43180
X78740Y45720
X27940Y43180
X25400Y43180
X22860Y43180
X20320Y43180
X17780Y43180
X15240Y43180
X12700Y43180
X86360Y40640
X45720Y2540
X68580Y2540
X66040Y2540
X63500Y2540
X60960Y2540
X58420Y2540
X55880Y2540
X53340Y2540
X50800Y2540
X48260Y2540
X71120Y2540
X43180Y2540
X40640Y2540
X38100Y2540
X35560Y2540
X33020Y2540
X30480Y2540
X27940Y2540
X25400Y2540
X22860Y2540
X17780Y5080
X40640Y5080
X38100Y5080
X35560Y5080
X33020Y5080
X30480Y5080
X27940Y5080
X25400Y5080
X22860Y5080
X20320Y5080
X20320Y2540
X15240Y5080
X12700Y5080
X86360Y2540
X83820Y2540
X81280Y2540
X78740Y2540
X76200Y2540
X73660Y2540
X33020Y12700
X55880Y12700
X53340Y12700
X50800Y12700
X48260Y12700
X45720Y12700
X43180Y12700
X40640Y12700
X38100Y12700
X35560Y12700
X58420Y12700
X30480Y12700
X27940Y12700
X25400Y12700
X22860Y12700
X20320Y12700
X17780Y12700
X15240Y12700
X12700Y12700
X10160Y12700
X81280Y12700
X17780Y2540
X15240Y2540
X12700Y2540
X96520Y12700
X93980Y12700
X91440Y12700
X88900Y12700
X86360Y12700
X83820Y12700
X43180Y5080
X78740Y12700
X76200Y12700
X73660Y12700
X71120Y12700
X68580Y12700
X66040Y12700
X63500Y12700
X60960Y12700
X12700Y10160
X35560Y10160
X33020Y10160
X30480Y10160
X27940Y10160
X25400Y10160
X22860Y10160
X20320Y10160
X17780Y10160
X15240Y10160
X38100Y10160
X86360Y7620
X83820Y7620
X81280Y7620
X78740Y7620
X76200Y7620
X73660Y7620
X71120Y7620
X68580Y7620
X66040Y7620
X60960Y10160
X83820Y10160
X81280Y10160
X78740Y10160
X76200Y10160
X73660Y10160
X71120Y10160
X68580Y10160
X66040Y10160
X63500Y10160
X63500Y7620
X58420Y10160
X55880Y10160
X53340Y10160
X50800Y10160
X48260Y10160
X45720Y10160
X43180Y10160
X40640Y10160
X66040Y5080
X12700Y7620
X86360Y5080
X83820Y5080
X81280Y5080
X78740Y5080
X76200Y5080
X73660Y5080
X71120Y5080
X68580Y5080
X15240Y7620
X63500Y5080
X60960Y5080
X58420Y5080
X55880Y5080
X53340Y5080
X50800Y5080
X48260Y5080
X45720Y5080
X38100Y7620
X60960Y7620
X58420Y7620
X55880Y7620
X53340Y7620
X50800Y7620
X48260Y7620
X45720Y7620
X43180Y7620
X40640Y7620
X7620Y12700
X35560Y7620
X33020Y7620
X30480Y7620
X27940Y7620
X25400Y7620
X22860Y7620
X20320Y7620
X17780Y7620
X27940Y20320
X50800Y20320
X48260Y20320
X45720Y20320
X43180Y20320
X40640Y20320
X38100Y20320
X35560Y20320
X33020Y20320
X30480Y20320
X53340Y20320
X25400Y20320
X22860Y20320
X20320Y20320
X17780Y20320
X15240Y20320
X12700Y20320
X10160Y20320
X7620Y20320
X5080Y20320
X76200Y20320
X2540Y17780
X96520Y20320
X93980Y20320
X91440Y20320
X88900Y20320
X86360Y20320
X83820Y20320
X81280Y20320
X78740Y20320
X2540Y20320
X73660Y20320
X71120Y20320
X68580Y20320
X66040Y20320
X63500Y20320
X60960Y20320
X58420Y20320
X55880Y20320
X25400Y22860
X48260Y22860
X45720Y22860
X43180Y22860
X40640Y22860
X38100Y22860
X35560Y22860
X33020Y22860
X30480Y22860
X27940Y22860
X50800Y22860
X22860Y22860
X20320Y22860
X17780Y22860
X15240Y22860
X12700Y22860
X10160Y22860
X7620Y22860
X5080Y22860
X2540Y22860
X73660Y22860
X96520Y22860
X93980Y22860
X91440Y22860
X88900Y22860
X86360Y22860
X83820Y22860
X81280Y22860
X78740Y22860
X76200Y22860
X5080Y17780
X71120Y22860
X68580Y22860
X66040Y22860
X63500Y22860
X60960Y22860
X58420Y22860
X55880Y22860
X53340Y22860
X30480Y15240
X53340Y15240
X50800Y15240
X48260Y15240
X45720Y15240
X43180Y15240
X40640Y15240
X38100Y15240
X35560Y15240
X33020Y15240
X55880Y15240
X27940Y15240
X25400Y15240
X22860Y15240
X20320Y15240
X17780Y15240
X15240Y15240
X12700Y15240
X10160Y15240
X7620Y15240
X78740Y15240
X5080Y12700
X2540Y12700
X96520Y15240
X93980Y15240
X91440Y15240
X88900Y15240
X86360Y15240
X83820Y15240
X81280Y15240
X5080Y15240
X76200Y15240
X73660Y15240
X71120Y15240
X68580Y15240
X66040Y15240
X63500Y15240
X60960Y15240
X58420Y15240
X27940Y17780
X50800Y17780
X48260Y17780
X45720Y17780
X43180Y17780
X40640Y17780
X38100Y17780
X35560Y17780
X33020Y17780
X30480Y17780
X53340Y17780
X25400Y17780
X22860Y17780
X20320Y17780
X17780Y17780
X15240Y17780
X12700Y17780
X10160Y17780
X7620Y17780
X76200Y17780
X2540Y15240
X96520Y17780
X93980Y17780
X91440Y17780
X88900Y17780
X86360Y17780
X83820Y17780
X81280Y17780
X78740Y17780
X96520Y25400
X73660Y17780
X71120Y17780
X68580Y17780
X66040Y17780
X63500Y17780
X60960Y17780
X58420Y17780
X55880Y17780
X20320Y78740
X43180Y78740
X40640Y78740
X38100Y78740
X35560Y78740
X33020Y78740
X30480Y78740
X27940Y78740
X25400Y78740
X22860Y78740
X45720Y78740
X17780Y78740
X15240Y78740
X12700Y78740
X10160Y78740
X7620Y78740
X5080Y78740
X2540Y78740
X96520Y81280
X93980Y81280
X68580Y78740
X91440Y78740
X88900Y78740
X86360Y78740
X83820Y78740
X81280Y78740
X78740Y78740
X76200Y78740
X73660Y78740
X71120Y78740
X91440Y81280
X66040Y78740
X63500Y78740
X60960Y78740
X58420Y78740
X55880Y78740
X53340Y78740
X50800Y78740
X48260Y78740
X17780Y81280
X40640Y81280
X38100Y81280
X35560Y81280
X33020Y81280
X30480Y81280
X27940Y81280
X25400Y81280
X22860Y81280
X20320Y81280
X43180Y81280
X15240Y81280
X12700Y81280
X10160Y81280
X7620Y81280
X5080Y81280
X2540Y81280
X86360Y93980
X83820Y93980
X81280Y93980
X66040Y81280
X88900Y81280
X86360Y81280
X83820Y81280
X81280Y81280
X78740Y81280
X76200Y81280
X73660Y81280
X71120Y81280
X68580Y81280
X93980Y78740
X63500Y81280
X60960Y81280
X58420Y81280
X55880Y81280
X53340Y81280
X50800Y81280
X48260Y81280
X45720Y81280
X22860Y73660
X45720Y73660
X43180Y73660
X40640Y73660
X38100Y73660
X35560Y73660
X33020Y73660
X30480Y73660
X27940Y73660
X25400Y73660
X48260Y73660
X20320Y73660
X17780Y73660
X15240Y73660
X12700Y73660
X10160Y73660
X7620Y73660
X5080Y73660
X2540Y73660
X96520Y76200
X71120Y73660
X93980Y73660
X91440Y73660
X88900Y73660
X86360Y73660
X83820Y73660
X81280Y73660
X78740Y73660
X76200Y73660
X73660Y73660
X93980Y76200
X68580Y73660
X66040Y73660
X63500Y73660
X60960Y73660
X58420Y73660
X55880Y73660
X53340Y73660
X50800Y73660
X20320Y76200
X43180Y76200
X40640Y76200
X38100Y76200
X35560Y76200
X33020Y76200
X30480Y76200
X27940Y76200
X25400Y76200
X22860Y76200
X45720Y76200
X17780Y76200
X15240Y76200
X12700Y76200
X10160Y76200
X7620Y76200
X5080Y76200
X2540Y76200
X96520Y78740
X68580Y76200
X91440Y76200
X88900Y76200
X86360Y76200
X83820Y76200
X81280Y76200
X78740Y76200
X76200Y76200
X73660Y76200
X71120Y76200
X78740Y93980
X66040Y76200
X63500Y76200
X60960Y76200
X58420Y76200
X55880Y76200
X53340Y76200
X50800Y76200
X48260Y76200
X38100Y86360
X60960Y86360
X58420Y86360
X55880Y86360
X53340Y86360
X50800Y86360
X48260Y86360
X45720Y86360
X43180Y86360
X40640Y86360
X63500Y86360
X35560Y86360
X33020Y86360
X30480Y86360
X27940Y86360
X25400Y86360
X22860Y86360
X20320Y86360
X17780Y86360
X15240Y86360
X86360Y86360
X33020Y88900
X30480Y88900
X27940Y88900
X25400Y88900
X22860Y88900
X20320Y88900
X17780Y88900
X15240Y88900
X12700Y88900
X12700Y86360
X83820Y86360
X81280Y86360
X78740Y86360
X76200Y86360
X73660Y86360
X71120Y86360
X68580Y86360
X66040Y86360
X25400Y83820
X48260Y83820
X45720Y83820
X43180Y83820
X40640Y83820
X38100Y83820
X35560Y83820
X33020Y83820
X30480Y83820
X27940Y83820
X50800Y83820
X22860Y83820
X20320Y83820
X17780Y83820
X15240Y83820
X12700Y83820
X10160Y83820
X7620Y83820
X5080Y83820
X2540Y83820
X73660Y83820
X96520Y83820
X93980Y83820
X91440Y83820
X88900Y83820
X86360Y83820
X83820Y83820
X81280Y83820
X78740Y83820
X76200Y83820
X35560Y88900
X71120Y83820
X68580Y83820
X66040Y83820
X63500Y83820
X60960Y83820
X58420Y83820
X55880Y83820
X53340Y83820
X81280Y91440
X27940Y93980
X25400Y93980
X22860Y93980
X20320Y93980
X17780Y93980
X15240Y93980
X12700Y93980
X86360Y91440
X83820Y91440
X30480Y93980
X78740Y91440
X76200Y91440
X73660Y91440
X71120Y91440
X68580Y91440
X66040Y91440
X63500Y91440
X60960Y91440
X58420Y91440
X53340Y93980
X76200Y93980
X73660Y93980
X71120Y93980
X68580Y93980
X66040Y93980
X63500Y93980
X60960Y93980
X58420Y93980
X55880Y93980
X55880Y91440
X50800Y93980
X48260Y93980
X45720Y93980
X43180Y93980
X40640Y93980
X38100Y93980
X35560Y93980
X33020Y93980
X58420Y88900
X81280Y88900
X78740Y88900
X76200Y88900
X73660Y88900
X71120Y88900
X68580Y88900
X66040Y88900
X63500Y88900
X60960Y88900
X83820Y88900
X55880Y88900
X53340Y88900
X50800Y88900
X48260Y88900
X45720Y88900
X43180Y88900
X40640Y88900
X38100Y88900
X30480Y91440
X53340Y91440
X50800Y91440
X48260Y91440
X45720Y91440
X43180Y91440
X40640Y91440
X38100Y91440
X35560Y91440
X33020Y91440
X96520Y73660
X27940Y91440
X25400Y91440
X22860Y91440
X20320Y91440
X17780Y91440
X15240Y91440
X12700Y91440
X86360Y88900
X45720Y50800
X68580Y50800
X66040Y50800
X63500Y50800
X60960Y50800
X58420Y50800
X55880Y50800
X53340Y50800
X50800Y50800
X48260Y50800
X71120Y50800
X43180Y50800
X40640Y50800
X38100Y50800
X35560Y50800
X33020Y50800
X30480Y50800
X27940Y50800
X25400Y50800
X22860Y50800
X17780Y53340
X40640Y53340
X38100Y53340
X35560Y53340
X33020Y53340
X30480Y53340
X27940Y53340
X25400Y53340
X22860Y53340
X20320Y53340
X20320Y50800
X15240Y53340
X12700Y53340
X86360Y50800
X83820Y50800
X81280Y50800
X78740Y50800
X76200Y50800
X73660Y50800
X33020Y60960
X55880Y60960
X53340Y60960
X50800Y60960
X48260Y60960
X45720Y60960
X43180Y60960
X40640Y60960
X38100Y60960
X35560Y60960
X58420Y60960
X30480Y60960
X27940Y60960
X25400Y60960
X22860Y60960
X20320Y60960
X17780Y60960
X15240Y60960
X12700Y60960
X10160Y60960
X81280Y60960
X17780Y50800
X15240Y50800
X12700Y50800
X96520Y60960
X93980Y60960
X91440Y60960
X88900Y60960
X86360Y60960
X83820Y60960
X43180Y53340
X78740Y60960
X76200Y60960
X73660Y60960
X71120Y60960
X68580Y60960
X66040Y60960
X63500Y60960
X60960Y60960
X12700Y58420
X35560Y58420
X33020Y58420
X30480Y58420
X27940Y58420
X25400Y58420
X22860Y58420
X20320Y58420
X17780Y58420
X15240Y58420
X38100Y58420
X86360Y55880
X83820Y55880
X81280Y55880
X78740Y55880
X76200Y55880
X73660Y55880
X71120Y55880
X68580Y55880
X66040Y55880
X60960Y58420
X83820Y58420
X81280Y58420
X78740Y58420
X76200Y58420
X73660Y58420
X71120Y58420
X68580Y58420
X66040Y58420
X63500Y58420
X63500Y55880
X58420Y58420
X55880Y58420
X53340Y58420
X50800Y58420
X48260Y58420
X45720Y58420
X43180Y58420
X40640Y58420
X66040Y53340
X12700Y55880
X86360Y53340
X83820Y53340
X81280Y53340
X78740Y53340
X76200Y53340
X73660Y53340
X71120Y53340
X68580Y53340
X15240Y55880
X63500Y53340
X60960Y53340
X58420Y53340
X55880Y53340
X53340Y53340
X50800Y53340
X48260Y53340
X45720Y53340
X38100Y55880
X60960Y55880
X58420Y55880
X55880Y55880
X53340Y55880
X50800Y55880
X48260Y55880
X45720Y55880
X43180Y55880
X40640Y55880
X7620Y60960
X35560Y55880
X33020Y55880
X30480Y55880
X27940Y55880
X25400Y55880
X22860Y55880
X20320Y55880
X17780Y55880
X27940Y68580
X50800Y68580
X48260Y68580
X45720Y68580
X43180Y68580
X40640Y68580
X38100Y68580
X35560Y68580
X33020Y68580
X30480Y68580
X53340Y68580
X25400Y68580
X22860Y68580
X20320Y68580
X17780Y68580
X15240Y68580
X12700Y68580
X10160Y68580
X7620Y68580
X5080Y68580
X76200Y68580
X2540Y66040
X96520Y68580
X93980Y68580
X91440Y68580
X88900Y68580
X86360Y68580
X83820Y68580
X81280Y68580
X78740Y68580
X2540Y68580
X73660Y68580
X71120Y68580
X68580Y68580
X66040Y68580
X63500Y68580
X60960Y68580
X58420Y68580
X55880Y68580
X25400Y71120
X48260Y71120
X45720Y71120
X43180Y71120
X40640Y71120
X38100Y71120
X35560Y71120
X33020Y71120
X30480Y71120
X27940Y71120
X50800Y71120
X22860Y71120
X20320Y71120
X17780Y71120
X15240Y71120
X12700Y71120
X10160Y71120
X7620Y71120
X5080Y71120
X2540Y71120
X73660Y71120
X96520Y71120
X93980Y71120
X91440Y71120
X88900Y71120
X86360Y71120
X83820Y71120
X81280Y71120
X78740Y71120
X76200Y71120
X5080Y66040
X71120Y71120
X68580Y71120
X66040Y71120
X63500Y71120
X60960Y71120
X58420Y71120
X55880Y71120
X53340Y71120
X30480Y63500
X53340Y63500
X50800Y63500
X48260Y63500
X45720Y63500
X43180Y63500
X40640Y63500
X38100Y63500
X35560Y63500
X33020Y63500
X55880Y63500
X27940Y63500
X25400Y63500
X22860Y63500
X20320Y63500
X17780Y63500
X15240Y63500
X12700Y63500
X10160Y63500
X7620Y63500
X78740Y63500
X5080Y60960
X2540Y60960
X96520Y63500
X93980Y63500
X91440Y63500
X88900Y63500
X86360Y63500
X83820Y63500
X81280Y63500
X5080Y63500
X76200Y63500
X73660Y63500
X71120Y63500
X68580Y63500
X66040Y63500
X63500Y63500
X60960Y63500
X58420Y63500
X27940Y66040
X50800Y66040
X48260Y66040
X45720Y66040
X43180Y66040
X40640Y66040
X38100Y66040
X35560Y66040
X33020Y66040
X30480Y66040
X53340Y66040
X25400Y66040
X22860Y66040
X20320Y66040
X17780Y66040
X15240Y66040
X12700Y66040
X10160Y66040
X7620Y66040
X76200Y66040
X2540Y63500
X96520Y66040
X93980Y66040
X91440Y66040
X88900Y66040
X86360Y66040
X83820Y66040
X81280Y66040
X78740Y66040
X86360Y58420
X73660Y66040
X71120Y66040
X68580Y66040
X66040Y66040
X63500Y66040
X60960Y66040
X58420Y66040
X55880Y66040
M30